<svg width="60" height="60" viewBox="0 0 56 56" fill="black" xmlns="http://www.w3.org/2000/svg">
  <path
     fill-rule="evenodd"
     clip-rule="evenodd"
     d="M 8.9361631,2.4468029e-4 47.361794,0 c 1.359445,0 2.717912,0.19965913 4.13755,0.86151982 1.701754,0.79325348 2.604137,2.04356988 3.236391,2.96821668 0.04918,0.071936 0.09519,0.1460741 0.137755,0.221925 C 55.616831,5.3748925 56,6.8035808 56,8.3404177 c 0,1.460252 -0.347446,3.0511633 -1.12651,4.4377663 -0.0074,0.01346 -0.01492,0.02643 -0.02251,0.03964 L 30.574252,54.519911 c -0.535361,0.919753 -1.520689,1.483742 -2.584806,1.480071 -1.064116,-0.0037 -2.04553,-0.574999 -2.574285,-1.498422 L 1.5842419,12.888535 c -0.00685,-0.01126 -0.013703,-0.02251 -0.020553,-0.03401 C 1.0182955,11.955814 0.17488123,10.566029 0.02733878,8.7725231 -0.10821431,7.1231332 0.2624769,5.4705625 1.0912103,4.0377148 1.9199437,2.6046223 3.1675705,1.4590291 4.668197,0.75777488 6.2772171,0.00587232 7.9077691,2.4468029e-4 8.9361631,2.4468029e-4 Z M 25.021225,5.9574763 H 8.9361631 c -1.056777,0 -1.4624575,0.065085 -1.7460424,0.1977017 C 6.7978976,6.3381988 6.4685574,6.6394003 6.2483448,7.0201228 6.0281322,7.4010901 5.9285472,7.8424933 5.9647599,8.2843859 5.9855582,8.53763 6.088813,8.8273315 6.6978232,9.8317441 c 0.012723,0.021042 0.025202,0.042329 0.037437,0.063617 L 25.021225,41.825895 Z m 5.957485,0 V 41.983713 L 49.688217,9.8447122 c 0.21116,-0.3836587 0.354298,-0.9381042 0.354298,-1.5042945 0,-0.459265 -0.09519,-0.8580938 -0.308053,-1.2691567 C 49.511068,6.7499957 49.375026,6.579943 49.26125,6.4634751 49.163622,6.3638903 49.088505,6.31055 48.982314,6.2611245 48.539931,6.0548591 48.087272,5.9574763 47.361794,5.9574763 Z"
     fill="#FFFFFF"
     id="path60"
     style="stroke-width:1;stroke-dasharray:none" />
</svg>

