<svg width="898" height="129" viewBox="0 0 898 129" fill="none" xmlns="http://www.w3.org/2000/svg">
<path d="M0.325284 5.45454H21.2841L49.3523 73.9631H50.4602L78.5284 5.45454H99.4872V100H83.0526V35.0462H82.1754L56.0462 99.723H43.7663L17.6371 34.9077H16.7599V100H0.325284V5.45454ZM162.594 70.1776V29.0909H179.306V100H163.102V87.397H162.364C160.763 91.3672 158.132 94.6141 154.469 97.1378C150.838 99.6615 146.36 100.923 141.036 100.923C136.388 100.923 132.28 99.8923 128.71 97.8303C125.17 95.7375 122.4 92.706 120.4 88.7358C118.399 84.7348 117.399 79.9029 117.399 74.2401V29.0909H134.111V71.6548C134.111 76.1482 135.342 79.7183 137.804 82.3651C140.266 85.0118 143.498 86.3352 147.499 86.3352C149.961 86.3352 152.346 85.7351 154.654 84.5348C156.962 83.3345 158.855 81.5495 160.332 79.1797C161.84 76.7791 162.594 73.7784 162.594 70.1776ZM213.203 5.45454V100H196.491V5.45454H213.203ZM265.796 29.0909V42.017H225.032V29.0909H265.796ZM235.096 12.1023H251.808V78.6719C251.808 80.9186 252.146 82.642 252.824 83.8423C253.531 85.0118 254.455 85.812 255.593 86.2429C256.732 86.6738 257.994 86.8892 259.379 86.8892C260.425 86.8892 261.379 86.8123 262.241 86.6584C263.134 86.5045 263.811 86.366 264.272 86.2429L267.088 99.3075C266.196 99.6153 264.919 99.9538 263.257 100.323C261.626 100.692 259.625 100.908 257.255 100.969C253.07 101.093 249.3 100.462 245.945 99.0767C242.59 97.661 239.928 95.4759 237.958 92.5213C236.02 89.5668 235.065 85.8736 235.096 81.4418V12.1023ZM279.772 100V29.0909H296.484V100H279.772ZM288.174 19.027C285.527 19.027 283.25 18.1499 281.342 16.3956C279.434 14.6106 278.48 12.4716 278.48 9.97869C278.48 7.45502 279.434 5.31605 281.342 3.56178C283.25 1.77675 285.527 0.88423 288.174 0.88423C290.852 0.88423 293.129 1.77675 295.007 3.56178C296.915 5.31605 297.869 7.45502 297.869 9.97869C297.869 12.4716 296.915 14.6106 295.007 16.3956C293.129 18.1499 290.852 19.027 288.174 19.027ZM369.713 47.8338L354.478 49.4957C354.047 47.9569 353.293 46.5104 352.216 45.1562C351.17 43.8021 349.754 42.7095 347.969 41.8785C346.184 41.0476 343.999 40.6321 341.414 40.6321C337.936 40.6321 335.012 41.3861 332.642 42.8942C330.303 44.4022 329.149 46.3565 329.18 48.7571C329.149 50.8191 329.903 52.4964 331.442 53.7891C333.012 55.0817 335.597 56.1435 339.198 56.9744L351.293 59.5597C358.002 61.0062 362.988 63.299 366.25 66.4382C369.543 69.5774 371.205 73.6861 371.236 78.7642C371.205 83.2268 369.897 87.1662 367.312 90.5824C364.758 93.9678 361.203 96.6146 356.648 98.5227C352.093 100.431 346.861 101.385 340.952 101.385C332.273 101.385 325.287 99.5691 319.993 95.9375C314.7 92.2751 311.545 87.1816 310.529 80.657L326.826 79.0874C327.564 82.2881 329.134 84.7041 331.534 86.3352C333.935 87.9664 337.059 88.782 340.906 88.782C344.876 88.782 348.061 87.9664 350.462 86.3352C352.893 84.7041 354.109 82.6882 354.109 80.2876C354.109 78.2564 353.324 76.5791 351.755 75.2557C350.216 73.9323 347.815 72.9167 344.553 72.2088L332.458 69.6697C325.656 68.254 320.624 65.8688 317.362 62.5142C314.1 59.1288 312.484 54.8509 312.515 49.6804C312.484 45.3101 313.669 41.5246 316.069 38.3239C318.501 35.0923 321.871 32.5994 326.179 30.8452C330.519 29.0601 335.52 28.1676 341.183 28.1676C349.493 28.1676 356.033 29.9373 360.803 33.4766C365.604 37.0159 368.574 41.8016 369.713 47.8338ZM385.016 100V29.0909H401.728V100H385.016ZM393.418 19.027C390.772 19.027 388.494 18.1499 386.586 16.3956C384.678 14.6106 383.724 12.4716 383.724 9.97869C383.724 7.45502 384.678 5.31605 386.586 3.56178C388.494 1.77675 390.772 0.88423 393.418 0.88423C396.096 0.88423 398.373 1.77675 400.251 3.56178C402.159 5.31605 403.113 7.45502 403.113 9.97869C403.113 12.4716 402.159 14.6106 400.251 16.3956C398.373 18.1499 396.096 19.027 393.418 19.027ZM449.751 128.068C443.749 128.068 438.594 127.253 434.286 125.621C429.977 124.021 426.515 121.867 423.899 119.158C421.283 116.45 419.467 113.449 418.451 110.156L433.501 106.509C434.178 107.894 435.163 109.264 436.455 110.618C437.748 112.003 439.487 113.142 441.672 114.034C443.888 114.957 446.673 115.419 450.028 115.419C454.767 115.419 458.691 114.265 461.8 111.957C464.908 109.679 466.463 105.924 466.463 100.692V87.2585H465.632C464.77 88.982 463.508 90.7517 461.846 92.5675C460.215 94.3833 458.045 95.9067 455.337 97.1378C452.659 98.3688 449.289 98.9844 445.227 98.9844C439.779 98.9844 434.84 97.7071 430.408 95.1527C426.007 92.5675 422.498 88.7204 419.882 83.6115C417.297 78.4718 416.004 72.0395 416.004 64.3146C416.004 56.5282 417.297 49.9574 419.882 44.6023C422.498 39.2164 426.022 35.1385 430.454 32.3686C434.886 29.5679 439.825 28.1676 445.273 28.1676C449.428 28.1676 452.844 28.8755 455.521 30.2912C458.23 31.6761 460.384 33.3535 461.985 35.3232C463.585 37.2621 464.801 39.0933 465.632 40.8168H466.555V29.0909H483.036V101.154C483.036 107.217 481.589 112.234 478.696 116.204C475.803 120.174 471.848 123.144 466.832 125.114C461.815 127.083 456.122 128.068 449.751 128.068ZM449.889 85.8736C453.429 85.8736 456.445 85.0118 458.938 83.2884C461.431 81.5649 463.323 79.0874 464.616 75.8558C465.909 72.6243 466.555 68.7464 466.555 64.2223C466.555 59.7597 465.909 55.8511 464.616 52.4964C463.354 49.1418 461.477 46.5412 458.984 44.6946C456.522 42.8172 453.49 41.8785 449.889 41.8785C446.165 41.8785 443.057 42.848 440.564 44.7869C438.071 46.7259 436.194 49.388 434.932 52.7734C433.67 56.1281 433.039 59.9444 433.039 64.2223C433.039 68.5618 433.67 72.3627 434.932 75.625C436.225 78.8565 438.117 81.3802 440.61 83.196C443.134 84.9811 446.227 85.8736 449.889 85.8736ZM547.043 100L527.008 29.0909H544.042L556.507 78.9489H557.153L569.895 29.0909H586.745L599.486 78.6719H600.179L612.459 29.0909H629.54L609.458 100H592.054L578.758 52.081H577.789L564.493 100H547.043ZM661.613 101.431C657.119 101.431 653.072 100.631 649.471 99.0305C645.901 97.3994 643.07 94.9988 640.977 91.8288C638.915 88.6589 637.884 84.7502 637.884 80.103C637.884 76.102 638.623 72.7936 640.1 70.1776C641.577 67.5616 643.593 65.4688 646.147 63.8991C648.702 62.3295 651.579 61.1446 654.78 60.3445C658.012 59.5135 661.351 58.9134 664.798 58.544C668.953 58.1132 672.323 57.7285 674.908 57.3899C677.493 57.0206 679.371 56.4666 680.54 55.728C681.74 54.9586 682.341 53.7737 682.341 52.1733V51.8963C682.341 48.4186 681.31 45.7256 679.248 43.8175C677.185 41.9093 674.216 40.9553 670.338 40.9553C666.244 40.9553 662.998 41.8478 660.597 43.6328C658.227 45.4178 656.627 47.526 655.796 49.9574L640.192 47.7415C641.423 43.4328 643.454 39.8319 646.286 36.9389C649.117 34.0151 652.58 31.83 656.673 30.3835C660.766 28.9062 665.29 28.1676 670.245 28.1676C673.662 28.1676 677.062 28.5677 680.448 29.3679C683.833 30.1681 686.926 31.4915 689.727 33.3381C692.528 35.1539 694.774 37.6314 696.467 40.7706C698.19 43.9098 699.052 47.8338 699.052 52.5426V100H682.987V90.2592H682.433C681.417 92.2289 679.986 94.0755 678.14 95.799C676.324 97.4917 674.031 98.8613 671.261 99.9077C668.522 100.923 665.306 101.431 661.613 101.431ZM665.952 89.1513C669.307 89.1513 672.215 88.4896 674.677 87.1662C677.139 85.812 679.032 84.027 680.355 81.8111C681.71 79.5952 682.387 77.1792 682.387 74.5632V66.2074C681.864 66.6383 680.971 67.0384 679.709 67.4077C678.478 67.777 677.093 68.1001 675.554 68.3771C674.016 68.6541 672.492 68.9003 670.984 69.1158C669.476 69.3312 668.168 69.5159 667.06 69.6697C664.567 70.0083 662.336 70.5623 660.366 71.3317C658.396 72.1011 656.842 73.1783 655.703 74.5632C654.565 75.9174 653.995 77.6716 653.995 79.826C653.995 82.9036 655.119 85.2273 657.365 86.7969C659.612 88.3665 662.474 89.1513 665.952 89.1513ZM732.568 5.45454V100H715.856V5.45454H732.568ZM766.464 5.45454V100H749.753V5.45454H766.464ZM815.041 101.385C807.932 101.385 801.792 99.9077 796.621 96.9531C791.482 93.9678 787.527 89.7514 784.757 84.304C781.987 78.8258 780.602 72.3781 780.602 64.9609C780.602 57.6669 781.987 51.2654 784.757 45.7564C787.558 40.2166 791.466 35.9079 796.483 32.8303C801.5 29.7218 807.393 28.1676 814.164 28.1676C818.534 28.1676 822.658 28.8755 826.536 30.2912C830.445 31.6761 833.892 33.8305 836.877 36.7543C839.893 39.678 842.263 43.402 843.987 47.9261C845.71 52.4195 846.572 57.7746 846.572 63.9915V69.1158H788.45V57.8516H830.553C830.522 54.6508 829.829 51.804 828.475 49.3111C827.121 46.7874 825.228 44.8023 822.797 43.3558C820.396 41.9093 817.596 41.1861 814.395 41.1861C810.979 41.1861 807.978 42.017 805.393 43.679C802.808 45.3101 800.792 47.4645 799.345 50.142C797.929 52.7888 797.206 55.6972 797.175 58.8672V68.7003C797.175 72.8243 797.929 76.3636 799.438 79.3182C800.946 82.2419 803.054 84.4886 805.762 86.0582C808.47 87.5971 811.64 88.3665 815.272 88.3665C817.703 88.3665 819.904 88.0279 821.874 87.3509C823.843 86.643 825.551 85.612 826.998 84.2578C828.444 82.9036 829.537 81.2263 830.276 79.2259L845.879 80.9801C844.894 85.1042 843.017 88.705 840.247 91.7827C837.508 94.8295 834 97.1993 829.722 98.892C825.444 100.554 820.55 101.385 815.041 101.385ZM896.118 29.0909V42.017H855.355V29.0909H896.118ZM865.419 12.1023H882.13V78.6719C882.13 80.9186 882.469 82.642 883.146 83.8423C883.854 85.0118 884.777 85.812 885.916 86.2429C887.054 86.6738 888.316 86.8892 889.701 86.8892C890.748 86.8892 891.702 86.8123 892.563 86.6584C893.456 86.5045 894.133 86.366 894.595 86.2429L897.411 99.3075C896.518 99.6153 895.241 99.9538 893.579 100.323C891.948 100.692 889.947 100.908 887.578 100.969C883.392 101.093 879.622 100.462 876.267 99.0767C872.913 97.661 870.25 95.4759 868.281 92.5213C866.342 89.5668 865.388 85.8736 865.419 81.4418V12.1023Z" fill="url(#paint0_linear_6_23)"/>
<defs>
<linearGradient id="paint0_linear_6_23" x1="-9" y1="64" x2="899.164" y2="80.0713" gradientUnits="userSpaceOnUse">
<stop stop-color="#0088CC"/>
<stop offset="1" stop-color="#5EDDFF"/>
</linearGradient>
</defs>
</svg>
