<svg width="986" height="50" viewBox="0 0 986 50" fill="none" xmlns="http://www.w3.org/2000/svg">
<path d="M23.6523 39H16.8164L6.92871 16.0752V39H0.0195312V3.45312H6.92871L16.7432 26.2803L16.7676 3.45312H23.6523V39ZM43.3057 39.4883C41.2712 39.4883 39.4238 39.1546 37.7637 38.4873C36.1035 37.82 34.6794 36.9085 33.4912 35.7529C32.3031 34.6136 31.3835 33.2708 30.7324 31.7246C30.0977 30.1621 29.7803 28.4938 29.7803 26.7197V25.7432C29.7803 23.7249 30.0977 21.8857 30.7324 20.2256C31.3672 18.5492 32.2542 17.1087 33.3936 15.9043C34.5329 14.6999 35.8838 13.764 37.4463 13.0967C39.0088 12.4294 40.7096 12.0957 42.5488 12.0957C44.4531 12.0957 46.1458 12.4131 47.627 13.0479C49.1243 13.6663 50.3939 14.5452 51.4355 15.6846C52.4609 16.8239 53.2422 18.1992 53.7793 19.8105C54.3164 21.4056 54.585 23.1715 54.585 25.1084V27.9893H36.665V28.0625C36.8929 29.1204 37.1859 29.9749 37.5439 30.626C37.902 31.2607 38.3822 31.8385 38.9844 32.3594C39.6029 32.8965 40.3109 33.3115 41.1084 33.6045C41.9059 33.8975 42.7767 34.0439 43.7207 34.0439C45.0553 34.0439 46.3493 33.7917 47.6025 33.2871C48.8558 32.7826 49.873 32.0257 50.6543 31.0166L54.0479 34.6787C53.1852 35.8994 51.818 37.0062 49.9463 37.999C48.0745 38.9919 45.861 39.4883 43.3057 39.4883ZM42.5 17.5889C41.735 17.5889 41.0352 17.7272 40.4004 18.0039C39.7656 18.2643 39.2122 18.6468 38.7402 19.1514C38.252 19.6559 37.8451 20.2581 37.5195 20.958C37.194 21.6579 36.9499 22.4391 36.7871 23.3018H47.9199V22.7646C47.9199 22.0485 47.7897 21.373 47.5293 20.7383C47.2689 20.1035 46.9108 19.5501 46.4551 19.0781C45.9993 18.6224 45.4378 18.2643 44.7705 18.0039C44.1195 17.7272 43.3626 17.5889 42.5 17.5889ZM72.2119 34.0684C72.8792 34.0684 73.514 33.9707 74.1162 33.7754C74.7184 33.5801 75.2474 33.3034 75.7031 32.9453C76.1589 32.5872 76.5088 32.1559 76.7529 31.6514C77.0133 31.1468 77.1273 30.5853 77.0947 29.9668H83.4912C83.5238 31.334 83.2389 32.6035 82.6367 33.7754C82.0508 34.9473 81.2451 35.9564 80.2197 36.8027C79.1943 37.6491 77.998 38.3164 76.6309 38.8047C75.2799 39.2767 73.8477 39.5127 72.334 39.5127C70.2832 39.5127 68.4847 39.1709 66.9385 38.4873C65.3923 37.7874 64.1064 36.8353 63.0811 35.6309C62.0394 34.4264 61.25 33.0186 60.7129 31.4072C60.1921 29.7796 59.9316 28.0381 59.9316 26.1826V25.4502C59.9316 23.5947 60.1921 21.8613 60.7129 20.25C61.2337 18.6224 62.015 17.2064 63.0566 16.002C64.0983 14.7975 65.3841 13.8454 66.9141 13.1455C68.4603 12.4456 70.2507 12.0957 72.2852 12.0957C73.9128 12.0957 75.4183 12.3398 76.8018 12.8281C78.1852 13.3164 79.3815 14 80.3906 14.8789C81.3835 15.7741 82.1566 16.8564 82.71 18.126C83.2633 19.3792 83.5238 20.7871 83.4912 22.3496H77.0947C77.1273 21.6986 77.0296 21.0801 76.8018 20.4941C76.5739 19.9082 76.2402 19.4036 75.8008 18.9805C75.3613 18.5573 74.8324 18.2236 74.2139 17.9795C73.5954 17.7191 72.9199 17.5889 72.1875 17.5889C71.1133 17.5889 70.2262 17.8086 69.5264 18.248C68.8265 18.6875 68.2731 19.2734 67.8662 20.0059C67.443 20.7383 67.1419 21.5765 66.9629 22.5205C66.8001 23.4645 66.7188 24.4411 66.7188 25.4502V26.1826C66.7188 27.208 66.8001 28.2008 66.9629 29.1611C67.1257 30.1051 67.4186 30.9352 67.8418 31.6514C68.2487 32.3838 68.8021 32.9697 69.502 33.4092C70.2181 33.8486 71.1214 34.0684 72.2119 34.0684ZM103.364 39.4883C101.33 39.4883 99.4824 39.1546 97.8223 38.4873C96.1621 37.82 94.738 36.9085 93.5498 35.7529C92.3617 34.6136 91.4421 33.2708 90.791 31.7246C90.1562 30.1621 89.8389 28.4938 89.8389 26.7197V25.7432C89.8389 23.7249 90.1562 21.8857 90.791 20.2256C91.4258 18.5492 92.3128 17.1087 93.4521 15.9043C94.5915 14.6999 95.9424 13.764 97.5049 13.0967C99.0674 12.4294 100.768 12.0957 102.607 12.0957C104.512 12.0957 106.204 12.4131 107.686 13.0479C109.183 13.6663 110.452 14.5452 111.494 15.6846C112.52 16.8239 113.301 18.1992 113.838 19.8105C114.375 21.4056 114.644 23.1715 114.644 25.1084V27.9893H96.7236V28.0625C96.9515 29.1204 97.2445 29.9749 97.6025 30.626C97.9606 31.2607 98.4408 31.8385 99.043 32.3594C99.6615 32.8965 100.369 33.3115 101.167 33.6045C101.965 33.8975 102.835 34.0439 103.779 34.0439C105.114 34.0439 106.408 33.7917 107.661 33.2871C108.914 32.7826 109.932 32.0257 110.713 31.0166L114.106 34.6787C113.244 35.8994 111.877 37.0062 110.005 37.999C108.133 38.9919 105.92 39.4883 103.364 39.4883ZM102.559 17.5889C101.794 17.5889 101.094 17.7272 100.459 18.0039C99.8242 18.2643 99.2708 18.6468 98.7988 19.1514C98.3105 19.6559 97.9036 20.2581 97.5781 20.958C97.2526 21.6579 97.0085 22.4391 96.8457 23.3018H107.979V22.7646C107.979 22.0485 107.848 21.373 107.588 20.7383C107.327 20.1035 106.969 19.5501 106.514 19.0781C106.058 18.6224 105.496 18.2643 104.829 18.0039C104.178 17.7272 103.421 17.5889 102.559 17.5889ZM137.617 31.749C137.617 31.3421 137.52 30.984 137.324 30.6748C137.145 30.3656 136.82 30.0726 136.348 29.7959C135.859 29.5355 135.216 29.2913 134.419 29.0635C133.621 28.8356 132.612 28.6077 131.392 28.3799C129.845 28.0706 128.429 27.6882 127.144 27.2324C125.874 26.7604 124.784 26.1908 123.872 25.5234C122.961 24.8724 122.244 24.1156 121.724 23.2529C121.219 22.3903 120.967 21.3975 120.967 20.2744C120.967 19.1839 121.227 18.1423 121.748 17.1494C122.269 16.1566 123.018 15.2858 123.994 14.5371C124.971 13.7884 126.159 13.1943 127.559 12.7549C128.958 12.3154 130.537 12.0957 132.295 12.0957C134.134 12.0957 135.786 12.3154 137.251 12.7549C138.716 13.1781 139.961 13.764 140.986 14.5127C141.995 15.2777 142.769 16.181 143.306 17.2227C143.843 18.2643 144.111 19.3955 144.111 20.6162H137.324C137.324 20.1768 137.251 19.7699 137.104 19.3955C136.958 19.0049 136.738 18.6549 136.445 18.3457C136.038 17.9388 135.485 17.6133 134.785 17.3691C134.102 17.125 133.271 17.0029 132.295 17.0029C131.465 17.0029 130.741 17.0843 130.122 17.2471C129.504 17.4098 128.999 17.6377 128.608 17.9307C128.25 18.1911 127.974 18.5003 127.778 18.8584C127.599 19.2002 127.51 19.5664 127.51 19.957C127.51 20.3477 127.591 20.7139 127.754 21.0557C127.917 21.3812 128.21 21.6742 128.633 21.9346C129.04 22.2113 129.601 22.4635 130.317 22.6914C131.034 22.903 131.945 23.0902 133.052 23.2529C134.647 23.5133 136.128 23.847 137.495 24.2539C138.862 24.6608 140.042 25.1816 141.035 25.8164C142.028 26.4674 142.801 27.2568 143.354 28.1846C143.924 29.096 144.209 30.1865 144.209 31.4561C144.209 32.6279 143.924 33.7103 143.354 34.7031C142.801 35.6797 142.012 36.526 140.986 37.2422C139.945 37.9583 138.691 38.5199 137.227 38.9268C135.762 39.3174 134.126 39.5127 132.319 39.5127C130.334 39.5127 128.576 39.2523 127.046 38.7314C125.532 38.2106 124.263 37.527 123.237 36.6807C122.212 35.8506 121.431 34.9066 120.894 33.8486C120.373 32.7744 120.112 31.7002 120.112 30.626H126.582C126.631 31.3421 126.826 31.9606 127.168 32.4814C127.51 32.986 127.949 33.3929 128.486 33.7021C129.023 34.0277 129.634 34.2637 130.317 34.4102C131.017 34.5566 131.733 34.6299 132.466 34.6299C133.345 34.6299 134.11 34.5566 134.761 34.4102C135.428 34.2474 135.973 34.0358 136.396 33.7754C136.803 33.515 137.104 33.2139 137.3 32.8721C137.511 32.5303 137.617 32.1559 137.617 31.749ZM167.646 31.749C167.646 31.3421 167.549 30.984 167.354 30.6748C167.174 30.3656 166.849 30.0726 166.377 29.7959C165.889 29.5355 165.246 29.2913 164.448 29.0635C163.651 28.8356 162.642 28.6077 161.421 28.3799C159.875 28.0706 158.459 27.6882 157.173 27.2324C155.903 26.7604 154.813 26.1908 153.901 25.5234C152.99 24.8724 152.274 24.1156 151.753 23.2529C151.248 22.3903 150.996 21.3975 150.996 20.2744C150.996 19.1839 151.257 18.1423 151.777 17.1494C152.298 16.1566 153.047 15.2858 154.023 14.5371C155 13.7884 156.188 13.1943 157.588 12.7549C158.988 12.3154 160.566 12.0957 162.324 12.0957C164.163 12.0957 165.815 12.3154 167.28 12.7549C168.745 13.1781 169.99 13.764 171.016 14.5127C172.025 15.2777 172.798 16.181 173.335 17.2227C173.872 18.2643 174.141 19.3955 174.141 20.6162H167.354C167.354 20.1768 167.28 19.7699 167.134 19.3955C166.987 19.0049 166.768 18.6549 166.475 18.3457C166.068 17.9388 165.514 17.6133 164.814 17.3691C164.131 17.125 163.301 17.0029 162.324 17.0029C161.494 17.0029 160.77 17.0843 160.151 17.2471C159.533 17.4098 159.028 17.6377 158.638 17.9307C158.28 18.1911 158.003 18.5003 157.808 18.8584C157.629 19.2002 157.539 19.5664 157.539 19.957C157.539 20.3477 157.62 20.7139 157.783 21.0557C157.946 21.3812 158.239 21.6742 158.662 21.9346C159.069 22.2113 159.631 22.4635 160.347 22.6914C161.063 22.903 161.974 23.0902 163.081 23.2529C164.676 23.5133 166.157 23.847 167.524 24.2539C168.892 24.6608 170.072 25.1816 171.064 25.8164C172.057 26.4674 172.83 27.2568 173.384 28.1846C173.953 29.096 174.238 30.1865 174.238 31.4561C174.238 32.6279 173.953 33.7103 173.384 34.7031C172.83 35.6797 172.041 36.526 171.016 37.2422C169.974 37.9583 168.721 38.5199 167.256 38.9268C165.791 39.3174 164.155 39.5127 162.349 39.5127C160.363 39.5127 158.605 39.2523 157.075 38.7314C155.562 38.2106 154.292 37.527 153.267 36.6807C152.241 35.8506 151.46 34.9066 150.923 33.8486C150.402 32.7744 150.142 31.7002 150.142 30.626H156.611C156.66 31.3421 156.855 31.9606 157.197 32.4814C157.539 32.986 157.979 33.3929 158.516 33.7021C159.053 34.0277 159.663 34.2637 160.347 34.4102C161.047 34.5566 161.763 34.6299 162.495 34.6299C163.374 34.6299 164.139 34.5566 164.79 34.4102C165.457 34.2474 166.003 34.0358 166.426 33.7754C166.833 33.515 167.134 33.2139 167.329 32.8721C167.541 32.5303 167.646 32.1559 167.646 31.749ZM197.139 39C196.976 38.6745 196.838 38.3001 196.724 37.877C196.61 37.4538 196.512 37.0062 196.431 36.5342C196.056 36.9411 195.625 37.3236 195.137 37.6816C194.648 38.0397 194.111 38.349 193.525 38.6094C192.923 38.8861 192.264 39.0977 191.548 39.2441C190.832 39.4069 190.059 39.4883 189.229 39.4883C187.878 39.4883 186.632 39.293 185.493 38.9023C184.37 38.5117 183.402 37.9665 182.588 37.2666C181.774 36.5667 181.139 35.7367 180.684 34.7764C180.228 33.7998 180 32.7419 180 31.6025C180 30.1377 180.285 28.8438 180.854 27.7207C181.424 26.5814 182.279 25.6455 183.418 24.9131C184.443 24.2458 185.705 23.7412 187.202 23.3994C188.716 23.0413 190.449 22.8623 192.402 22.8623H196.187V21.2998C196.187 20.6813 196.089 20.1279 195.894 19.6396C195.698 19.1351 195.405 18.7038 195.015 18.3457C194.608 17.9714 194.095 17.6865 193.477 17.4912C192.874 17.2796 192.166 17.1738 191.353 17.1738C190.636 17.1738 190.018 17.2633 189.497 17.4424C188.976 17.6051 188.553 17.8411 188.228 18.1504C187.935 18.4271 187.715 18.7607 187.568 19.1514C187.438 19.542 187.373 19.9733 187.373 20.4453H180.586C180.586 19.3223 180.83 18.2562 181.318 17.2471C181.823 16.238 182.555 15.3509 183.516 14.5859C184.46 13.821 185.615 13.2188 186.982 12.7793C188.366 12.3236 189.945 12.0957 191.719 12.0957C193.314 12.0957 194.795 12.291 196.162 12.6816C197.546 13.0723 198.742 13.6501 199.751 14.415C200.76 15.18 201.549 16.1484 202.119 17.3203C202.689 18.4759 202.974 19.8187 202.974 21.3486V32.6768C202.974 34.0928 203.063 35.2646 203.242 36.1924C203.421 37.1201 203.682 37.9176 204.023 38.585V39H197.139ZM190.669 34.2393C191.353 34.2393 191.987 34.1579 192.573 33.9951C193.159 33.8324 193.688 33.6208 194.16 33.3604C194.632 33.0999 195.039 32.807 195.381 32.4814C195.723 32.1396 195.991 31.7979 196.187 31.4561V26.915H192.72C191.662 26.915 190.758 27.0208 190.01 27.2324C189.261 27.4277 188.651 27.7044 188.179 28.0625C187.707 28.4368 187.357 28.8844 187.129 29.4053C186.901 29.9098 186.787 30.4632 186.787 31.0654C186.787 31.5374 186.868 31.9769 187.031 32.3838C187.21 32.7744 187.463 33.1081 187.788 33.3848C188.114 33.6452 188.512 33.8568 188.984 34.0195C189.473 34.166 190.034 34.2393 190.669 34.2393ZM229.634 12.0957C230.659 12.0957 231.603 12.1689 232.466 12.3154C233.345 12.4456 234.053 12.5921 234.59 12.7549L233.589 19.5176C232.694 19.306 231.774 19.1514 230.83 19.0537C229.902 18.9398 229.015 18.8828 228.169 18.8828C227.29 18.8828 226.493 18.9642 225.776 19.127C225.076 19.2734 224.45 19.5013 223.896 19.8105C223.229 20.1686 222.66 20.6243 222.188 21.1777C221.715 21.7311 221.325 22.3822 221.016 23.1309V39H214.229V12.584H220.552L220.82 16.3193L220.869 16.9053C221.943 15.4079 223.229 14.236 224.727 13.3896C226.224 12.527 227.86 12.0957 229.634 12.0957ZM244.868 49.6689C244.217 49.6689 243.647 49.6283 243.159 49.5469C242.687 49.4655 242.158 49.3434 241.572 49.1807L242.402 44.0049C242.679 44.0049 243.029 44.013 243.452 44.0293C243.892 44.0618 244.242 44.0781 244.502 44.0781C245.039 44.0781 245.511 43.9072 245.918 43.5654C246.341 43.2399 246.699 42.8818 246.992 42.4912C247.285 42.1006 247.497 41.8076 247.627 41.6123C247.773 41.417 247.944 41.1403 248.14 40.7822L249.702 37.877L238.521 12.584H245.942L251.997 28.0625L252.729 30.748L253.73 28.1113L259.761 12.584H267.256L253.853 42.9551C253.56 43.6224 253.177 44.3467 252.705 45.1279C252.249 45.9092 251.672 46.6335 250.972 47.3008C250.272 47.9681 249.417 48.5296 248.408 48.9854C247.415 49.4411 246.235 49.6689 244.868 49.6689ZM307.808 25.9629V39H300.947V3.45312H313.105C315.042 3.45312 316.792 3.73796 318.354 4.30762C319.917 4.861 321.252 5.63411 322.358 6.62695C323.449 7.63607 324.287 8.84049 324.873 10.2402C325.475 11.64 325.776 13.1943 325.776 14.9033C325.776 16.4984 325.475 17.9714 324.873 19.3223C324.287 20.6732 323.449 21.8369 322.358 22.8135C321.252 23.8063 319.917 24.5794 318.354 25.1328C316.792 25.6862 315.042 25.9629 313.105 25.9629H307.808ZM307.808 20.3965H313.105C314.082 20.3965 314.928 20.25 315.645 19.957C316.361 19.6641 316.963 19.2653 317.451 18.7607C317.923 18.2562 318.273 17.6784 318.501 17.0273C318.745 16.36 318.867 15.6683 318.867 14.9521C318.867 14.1221 318.745 13.349 318.501 12.6328C318.273 11.9167 317.923 11.29 317.451 10.7529C316.963 10.2158 316.361 9.79264 315.645 9.4834C314.928 9.17415 314.082 9.01953 313.105 9.01953H307.808V20.3965ZM349.751 12.0957C350.776 12.0957 351.72 12.1689 352.583 12.3154C353.462 12.4456 354.17 12.5921 354.707 12.7549L353.706 19.5176C352.811 19.306 351.891 19.1514 350.947 19.0537C350.02 18.9398 349.132 18.8828 348.286 18.8828C347.407 18.8828 346.61 18.9642 345.894 19.127C345.194 19.2734 344.567 19.5013 344.014 19.8105C343.346 20.1686 342.777 20.6243 342.305 21.1777C341.833 21.7311 341.442 22.3822 341.133 23.1309V39H334.346V12.584H340.669L340.938 16.3193L340.986 16.9053C342.061 15.4079 343.346 14.236 344.844 13.3896C346.341 12.527 347.977 12.0957 349.751 12.0957ZM359.883 25.5479C359.883 23.6273 360.16 21.8532 360.713 20.2256C361.266 18.5817 362.08 17.1576 363.154 15.9531C364.212 14.7487 365.506 13.8047 367.036 13.1211C368.582 12.4375 370.348 12.0957 372.334 12.0957C374.32 12.0957 376.086 12.4375 377.632 13.1211C379.178 13.8047 380.488 14.7487 381.562 15.9531C382.62 17.1576 383.426 18.5817 383.979 20.2256C384.533 21.8532 384.81 23.6273 384.81 25.5479V26.0605C384.81 27.9974 384.533 29.7878 383.979 31.4316C383.426 33.0592 382.62 34.4753 381.562 35.6797C380.505 36.8841 379.202 37.8281 377.656 38.5117C376.11 39.179 374.352 39.5127 372.383 39.5127C370.397 39.5127 368.623 39.179 367.061 38.5117C365.514 37.8281 364.212 36.8841 363.154 35.6797C362.08 34.4753 361.266 33.0592 360.713 31.4316C360.16 29.7878 359.883 27.9974 359.883 26.0605V25.5479ZM366.67 26.0605C366.67 27.1673 366.776 28.209 366.987 29.1855C367.199 30.1458 367.533 30.984 367.988 31.7002C368.444 32.4326 369.03 33.0104 369.746 33.4336C370.479 33.8568 371.357 34.0684 372.383 34.0684C373.376 34.0684 374.23 33.8568 374.946 33.4336C375.662 33.0104 376.248 32.4326 376.704 31.7002C377.144 30.984 377.469 30.1458 377.681 29.1855C377.892 28.209 377.998 27.1673 377.998 26.0605V25.5479C377.998 24.4736 377.892 23.4564 377.681 22.4961C377.469 21.5358 377.144 20.6895 376.704 19.957C376.248 19.2246 375.662 18.6468 374.946 18.2236C374.23 17.8005 373.359 17.5889 372.334 17.5889C371.325 17.5889 370.462 17.8005 369.746 18.2236C369.03 18.6468 368.444 19.2246 367.988 19.957C367.533 20.6895 367.199 21.5358 366.987 22.4961C366.776 23.4564 366.67 24.4736 366.67 25.5479V26.0605ZM403.291 6.11426V12.584H413.154V17.5889H403.291V28.9414C403.291 29.9017 403.397 30.7074 403.608 31.3584C403.836 31.9932 404.154 32.4977 404.561 32.8721C404.967 33.2627 405.456 33.5394 406.025 33.7021C406.611 33.8649 407.262 33.9463 407.979 33.9463C408.499 33.9463 409.028 33.9219 409.565 33.873C410.119 33.8242 410.648 33.7591 411.152 33.6777C411.641 33.6126 412.096 33.5394 412.52 33.458C412.959 33.3766 413.333 33.2952 413.643 33.2139L414.302 37.877C413.83 38.1536 413.276 38.3978 412.642 38.6094C412.007 38.8047 411.331 38.9674 410.615 39.0977C409.899 39.2279 409.15 39.3255 408.369 39.3906C407.604 39.472 406.847 39.5127 406.099 39.5127C404.65 39.5127 403.332 39.3255 402.144 38.9512C400.972 38.5605 399.971 37.9583 399.141 37.1445C398.294 36.347 397.643 35.3298 397.188 34.0928C396.732 32.8395 396.504 31.3421 396.504 29.6006V17.5889H390.474V12.584H396.504V6.11426H403.291ZM433.687 39.4883C431.652 39.4883 429.805 39.1546 428.145 38.4873C426.484 37.82 425.06 36.9085 423.872 35.7529C422.684 34.6136 421.764 33.2708 421.113 31.7246C420.479 30.1621 420.161 28.4938 420.161 26.7197V25.7432C420.161 23.7249 420.479 21.8857 421.113 20.2256C421.748 18.5492 422.635 17.1087 423.774 15.9043C424.914 14.6999 426.265 13.764 427.827 13.0967C429.39 12.4294 431.09 12.0957 432.93 12.0957C434.834 12.0957 436.527 12.4131 438.008 13.0479C439.505 13.6663 440.775 14.5452 441.816 15.6846C442.842 16.8239 443.623 18.1992 444.16 19.8105C444.697 21.4056 444.966 23.1715 444.966 25.1084V27.9893H427.046V28.0625C427.274 29.1204 427.567 29.9749 427.925 30.626C428.283 31.2607 428.763 31.8385 429.365 32.3594C429.984 32.8965 430.692 33.3115 431.489 33.6045C432.287 33.8975 433.158 34.0439 434.102 34.0439C435.436 34.0439 436.73 33.7917 437.983 33.2871C439.237 32.7826 440.254 32.0257 441.035 31.0166L444.429 34.6787C443.566 35.8994 442.199 37.0062 440.327 37.999C438.455 38.9919 436.242 39.4883 433.687 39.4883ZM432.881 17.5889C432.116 17.5889 431.416 17.7272 430.781 18.0039C430.146 18.2643 429.593 18.6468 429.121 19.1514C428.633 19.6559 428.226 20.2581 427.9 20.958C427.575 21.6579 427.331 22.4391 427.168 23.3018H438.301V22.7646C438.301 22.0485 438.171 21.373 437.91 20.7383C437.65 20.1035 437.292 19.5501 436.836 19.0781C436.38 18.6224 435.819 18.2643 435.151 18.0039C434.5 17.7272 433.743 17.5889 432.881 17.5889ZM462.593 34.0684C463.26 34.0684 463.895 33.9707 464.497 33.7754C465.099 33.5801 465.628 33.3034 466.084 32.9453C466.54 32.5872 466.89 32.1559 467.134 31.6514C467.394 31.1468 467.508 30.5853 467.476 29.9668H473.872C473.905 31.334 473.62 32.6035 473.018 33.7754C472.432 34.9473 471.626 35.9564 470.601 36.8027C469.575 37.6491 468.379 38.3164 467.012 38.8047C465.661 39.2767 464.229 39.5127 462.715 39.5127C460.664 39.5127 458.866 39.1709 457.319 38.4873C455.773 37.7874 454.487 36.8353 453.462 35.6309C452.42 34.4264 451.631 33.0186 451.094 31.4072C450.573 29.7796 450.312 28.0381 450.312 26.1826V25.4502C450.312 23.5947 450.573 21.8613 451.094 20.25C451.615 18.6224 452.396 17.2064 453.438 16.002C454.479 14.7975 455.765 13.8454 457.295 13.1455C458.841 12.4456 460.632 12.0957 462.666 12.0957C464.294 12.0957 465.799 12.3398 467.183 12.8281C468.566 13.3164 469.762 14 470.771 14.8789C471.764 15.7741 472.537 16.8564 473.091 18.126C473.644 19.3792 473.905 20.7871 473.872 22.3496H467.476C467.508 21.6986 467.41 21.0801 467.183 20.4941C466.955 19.9082 466.621 19.4036 466.182 18.9805C465.742 18.5573 465.213 18.2236 464.595 17.9795C463.976 17.7191 463.301 17.5889 462.568 17.5889C461.494 17.5889 460.607 17.8086 459.907 18.248C459.207 18.6875 458.654 19.2734 458.247 20.0059C457.824 20.7383 457.523 21.5765 457.344 22.5205C457.181 23.4645 457.1 24.4411 457.1 25.4502V26.1826C457.1 27.208 457.181 28.2008 457.344 29.1611C457.507 30.1051 457.799 30.9352 458.223 31.6514C458.63 32.3838 459.183 32.9697 459.883 33.4092C460.599 33.8486 461.502 34.0684 462.593 34.0684ZM493.379 6.11426V12.584H503.242V17.5889H493.379V28.9414C493.379 29.9017 493.485 30.7074 493.696 31.3584C493.924 31.9932 494.242 32.4977 494.648 32.8721C495.055 33.2627 495.544 33.5394 496.113 33.7021C496.699 33.8649 497.35 33.9463 498.066 33.9463C498.587 33.9463 499.116 33.9219 499.653 33.873C500.207 33.8242 500.736 33.7591 501.24 33.6777C501.729 33.6126 502.184 33.5394 502.607 33.458C503.047 33.3766 503.421 33.2952 503.73 33.2139L504.39 37.877C503.918 38.1536 503.364 38.3978 502.729 38.6094C502.095 38.8047 501.419 38.9674 500.703 39.0977C499.987 39.2279 499.238 39.3255 498.457 39.3906C497.692 39.472 496.935 39.5127 496.187 39.5127C494.738 39.5127 493.42 39.3255 492.231 38.9512C491.06 38.5605 490.059 37.9583 489.229 37.1445C488.382 36.347 487.731 35.3298 487.275 34.0928C486.82 32.8395 486.592 31.3421 486.592 29.6006V17.5889H480.562V12.584H486.592V6.11426H493.379ZM512.764 12.584H527.144V33.4824H534.297V39H512.764V33.4824H520.283V18.126H512.764V12.584ZM519.795 5.82129C519.795 5.30046 519.884 4.82031 520.063 4.38086C520.259 3.92513 520.527 3.53451 520.869 3.20898C521.211 2.89974 521.618 2.6556 522.09 2.47656C522.578 2.29753 523.115 2.20801 523.701 2.20801C524.906 2.20801 525.858 2.5498 526.558 3.2334C527.274 3.90072 527.632 4.76335 527.632 5.82129C527.632 6.87923 527.274 7.75 526.558 8.43359C525.858 9.10091 524.906 9.43457 523.701 9.43457C523.115 9.43457 522.578 9.34505 522.09 9.16602C521.618 8.98698 521.211 8.7347 520.869 8.40918C520.527 8.09993 520.259 7.72559 520.063 7.28613C519.884 6.8304 519.795 6.34212 519.795 5.82129ZM540.059 25.5479C540.059 23.6273 540.335 21.8532 540.889 20.2256C541.442 18.5817 542.256 17.1576 543.33 15.9531C544.388 14.7487 545.682 13.8047 547.212 13.1211C548.758 12.4375 550.524 12.0957 552.51 12.0957C554.495 12.0957 556.261 12.4375 557.808 13.1211C559.354 13.8047 560.664 14.7487 561.738 15.9531C562.796 17.1576 563.602 18.5817 564.155 20.2256C564.709 21.8532 564.985 23.6273 564.985 25.5479V26.0605C564.985 27.9974 564.709 29.7878 564.155 31.4316C563.602 33.0592 562.796 34.4753 561.738 35.6797C560.68 36.8841 559.378 37.8281 557.832 38.5117C556.286 39.179 554.528 39.5127 552.559 39.5127C550.573 39.5127 548.799 39.179 547.236 38.5117C545.69 37.8281 544.388 36.8841 543.33 35.6797C542.256 34.4753 541.442 33.0592 540.889 31.4316C540.335 29.7878 540.059 27.9974 540.059 26.0605V25.5479ZM546.846 26.0605C546.846 27.1673 546.951 28.209 547.163 29.1855C547.375 30.1458 547.708 30.984 548.164 31.7002C548.62 32.4326 549.206 33.0104 549.922 33.4336C550.654 33.8568 551.533 34.0684 552.559 34.0684C553.551 34.0684 554.406 33.8568 555.122 33.4336C555.838 33.0104 556.424 32.4326 556.88 31.7002C557.319 30.984 557.645 30.1458 557.856 29.1855C558.068 28.209 558.174 27.1673 558.174 26.0605V25.5479C558.174 24.4736 558.068 23.4564 557.856 22.4961C557.645 21.5358 557.319 20.6895 556.88 19.957C556.424 19.2246 555.838 18.6468 555.122 18.2236C554.406 17.8005 553.535 17.5889 552.51 17.5889C551.501 17.5889 550.638 17.8005 549.922 18.2236C549.206 18.6468 548.62 19.2246 548.164 19.957C547.708 20.6895 547.375 21.5358 547.163 22.4961C546.951 23.4564 546.846 24.4736 546.846 25.5479V26.0605ZM571.016 39V12.584H577.168L577.583 16.2461C577.925 15.7578 578.299 15.3102 578.706 14.9033C579.113 14.4964 579.544 14.1302 580 13.8047C580.781 13.2513 581.636 12.8281 582.563 12.5352C583.491 12.2422 584.476 12.0957 585.518 12.0957C586.852 12.0957 588.073 12.291 589.18 12.6816C590.286 13.0723 591.247 13.6908 592.061 14.5371C592.858 15.3997 593.477 16.5065 593.916 17.8574C594.372 19.1921 594.6 20.8197 594.6 22.7402V39H587.812V22.8379C587.812 21.7962 587.69 20.9417 587.446 20.2744C587.218 19.5908 586.885 19.0537 586.445 18.6631C586.006 18.2725 585.477 18.0039 584.858 17.8574C584.24 17.6947 583.54 17.6133 582.759 17.6133C582.108 17.6133 581.506 17.6865 580.952 17.833C580.415 17.9795 579.935 18.1992 579.512 18.4922C579.17 18.7038 578.861 18.9561 578.584 19.249C578.307 19.542 578.055 19.8675 577.827 20.2256V39H571.016ZM637.642 39V17.5889H630.708V12.584H637.642V11.1436C637.642 9.40202 637.918 7.86393 638.472 6.5293C639.025 5.19466 639.814 4.07161 640.84 3.16016C641.865 2.2487 643.11 1.5651 644.575 1.10938C646.04 0.63737 647.676 0.401367 649.482 0.401367C650.052 0.401367 650.597 0.425781 651.118 0.474609C651.655 0.507161 652.176 0.55599 652.681 0.621094C653.185 0.686198 653.69 0.75944 654.194 0.84082C654.715 0.922201 655.252 1.01172 655.806 1.10938L655.366 6.43164C654.748 6.30143 654.048 6.1875 653.267 6.08984C652.485 5.99219 651.566 5.94336 650.508 5.94336C649.368 5.94336 648.4 6.07357 647.603 6.33398C646.805 6.5944 646.17 6.97689 645.698 7.48145C645.275 7.90462 644.958 8.42546 644.746 9.04395C644.551 9.66243 644.453 10.3623 644.453 11.1436V12.584H653.975V17.5889H644.453V39H637.642ZM660.176 25.5479C660.176 23.6273 660.452 21.8532 661.006 20.2256C661.559 18.5817 662.373 17.1576 663.447 15.9531C664.505 14.7487 665.799 13.8047 667.329 13.1211C668.875 12.4375 670.641 12.0957 672.627 12.0957C674.613 12.0957 676.379 12.4375 677.925 13.1211C679.471 13.8047 680.781 14.7487 681.855 15.9531C682.913 17.1576 683.719 18.5817 684.272 20.2256C684.826 21.8532 685.103 23.6273 685.103 25.5479V26.0605C685.103 27.9974 684.826 29.7878 684.272 31.4316C683.719 33.0592 682.913 34.4753 681.855 35.6797C680.798 36.8841 679.495 37.8281 677.949 38.5117C676.403 39.179 674.645 39.5127 672.676 39.5127C670.69 39.5127 668.916 39.179 667.354 38.5117C665.807 37.8281 664.505 36.8841 663.447 35.6797C662.373 34.4753 661.559 33.0592 661.006 31.4316C660.452 29.7878 660.176 27.9974 660.176 26.0605V25.5479ZM666.963 26.0605C666.963 27.1673 667.069 28.209 667.28 29.1855C667.492 30.1458 667.826 30.984 668.281 31.7002C668.737 32.4326 669.323 33.0104 670.039 33.4336C670.771 33.8568 671.65 34.0684 672.676 34.0684C673.669 34.0684 674.523 33.8568 675.239 33.4336C675.955 33.0104 676.541 32.4326 676.997 31.7002C677.437 30.984 677.762 30.1458 677.974 29.1855C678.185 28.209 678.291 27.1673 678.291 26.0605V25.5479C678.291 24.4736 678.185 23.4564 677.974 22.4961C677.762 21.5358 677.437 20.6895 676.997 19.957C676.541 19.2246 675.955 18.6468 675.239 18.2236C674.523 17.8005 673.652 17.5889 672.627 17.5889C671.618 17.5889 670.755 17.8005 670.039 18.2236C669.323 18.6468 668.737 19.2246 668.281 19.957C667.826 20.6895 667.492 21.5358 667.28 22.4961C667.069 23.4564 666.963 24.4736 666.963 25.5479V26.0605ZM710.103 12.0957C711.128 12.0957 712.072 12.1689 712.935 12.3154C713.813 12.4456 714.521 12.5921 715.059 12.7549L714.058 19.5176C713.162 19.306 712.243 19.1514 711.299 19.0537C710.371 18.9398 709.484 18.8828 708.638 18.8828C707.759 18.8828 706.961 18.9642 706.245 19.127C705.545 19.2734 704.919 19.5013 704.365 19.8105C703.698 20.1686 703.128 20.6243 702.656 21.1777C702.184 21.7311 701.794 22.3822 701.484 23.1309V39H694.697V12.584H701.021L701.289 16.3193L701.338 16.9053C702.412 15.4079 703.698 14.236 705.195 13.3896C706.693 12.527 708.328 12.0957 710.103 12.0957ZM772.822 23.4238H758.223V33.458H775.288V39H751.338V3.45312H775.215V9.04395H758.223V18.0039H772.822V23.4238ZM789.619 39L779.536 12.584H786.616L792.427 31.2119L792.793 33.0674L793.159 31.2119L798.945 12.584H806.025L795.991 39H789.619ZM824.067 39.4883C822.033 39.4883 820.186 39.1546 818.525 38.4873C816.865 37.82 815.441 36.9085 814.253 35.7529C813.065 34.6136 812.145 33.2708 811.494 31.7246C810.859 30.1621 810.542 28.4938 810.542 26.7197V25.7432C810.542 23.7249 810.859 21.8857 811.494 20.2256C812.129 18.5492 813.016 17.1087 814.155 15.9043C815.295 14.6999 816.646 13.764 818.208 13.0967C819.771 12.4294 821.471 12.0957 823.311 12.0957C825.215 12.0957 826.908 12.4131 828.389 13.0479C829.886 13.6663 831.156 14.5452 832.197 15.6846C833.223 16.8239 834.004 18.1992 834.541 19.8105C835.078 21.4056 835.347 23.1715 835.347 25.1084V27.9893H817.427V28.0625C817.655 29.1204 817.948 29.9749 818.306 30.626C818.664 31.2607 819.144 31.8385 819.746 32.3594C820.365 32.8965 821.073 33.3115 821.87 33.6045C822.668 33.8975 823.538 34.0439 824.482 34.0439C825.817 34.0439 827.111 33.7917 828.364 33.2871C829.618 32.7826 830.635 32.0257 831.416 31.0166L834.81 34.6787C833.947 35.8994 832.58 37.0062 830.708 37.999C828.836 38.9919 826.623 39.4883 824.067 39.4883ZM823.262 17.5889C822.497 17.5889 821.797 17.7272 821.162 18.0039C820.527 18.2643 819.974 18.6468 819.502 19.1514C819.014 19.6559 818.607 20.2581 818.281 20.958C817.956 21.6579 817.712 22.4391 817.549 23.3018H828.682V22.7646C828.682 22.0485 828.551 21.373 828.291 20.7383C828.031 20.1035 827.673 19.5501 827.217 19.0781C826.761 18.6224 826.2 18.2643 825.532 18.0039C824.881 17.7272 824.124 17.5889 823.262 17.5889ZM860.249 12.0957C861.274 12.0957 862.218 12.1689 863.081 12.3154C863.96 12.4456 864.668 12.5921 865.205 12.7549L864.204 19.5176C863.309 19.306 862.389 19.1514 861.445 19.0537C860.518 18.9398 859.631 18.8828 858.784 18.8828C857.905 18.8828 857.108 18.9642 856.392 19.127C855.692 19.2734 855.065 19.5013 854.512 19.8105C853.844 20.1686 853.275 20.6243 852.803 21.1777C852.331 21.7311 851.94 22.3822 851.631 23.1309V39H844.844V12.584H851.167L851.436 16.3193L851.484 16.9053C852.559 15.4079 853.844 14.236 855.342 13.3896C856.839 12.527 858.475 12.0957 860.249 12.0957ZM875.483 49.6689C874.832 49.6689 874.263 49.6283 873.774 49.5469C873.302 49.4655 872.773 49.3434 872.188 49.1807L873.018 44.0049C873.294 44.0049 873.644 44.013 874.067 44.0293C874.507 44.0618 874.857 44.0781 875.117 44.0781C875.654 44.0781 876.126 43.9072 876.533 43.5654C876.956 43.2399 877.314 42.8818 877.607 42.4912C877.9 42.1006 878.112 41.8076 878.242 41.6123C878.389 41.417 878.56 41.1403 878.755 40.7822L880.317 37.877L869.136 12.584H876.558L882.612 28.0625L883.345 30.748L884.346 28.1113L890.376 12.584H897.871L884.468 42.9551C884.175 43.6224 883.792 44.3467 883.32 45.1279C882.865 45.9092 882.287 46.6335 881.587 47.3008C880.887 47.9681 880.033 48.5296 879.023 48.9854C878.031 49.4411 876.851 49.6689 875.483 49.6689ZM900.41 25.5479C900.41 23.6273 900.687 21.8532 901.24 20.2256C901.794 18.5817 902.607 17.1576 903.682 15.9531C904.74 14.7487 906.034 13.8047 907.563 13.1211C909.11 12.4375 910.876 12.0957 912.861 12.0957C914.847 12.0957 916.613 12.4375 918.159 13.1211C919.705 13.8047 921.016 14.7487 922.09 15.9531C923.148 17.1576 923.953 18.5817 924.507 20.2256C925.06 21.8532 925.337 23.6273 925.337 25.5479V26.0605C925.337 27.9974 925.06 29.7878 924.507 31.4316C923.953 33.0592 923.148 34.4753 922.09 35.6797C921.032 36.8841 919.73 37.8281 918.184 38.5117C916.637 39.179 914.88 39.5127 912.91 39.5127C910.924 39.5127 909.15 39.179 907.588 38.5117C906.042 37.8281 904.74 36.8841 903.682 35.6797C902.607 34.4753 901.794 33.0592 901.24 31.4316C900.687 29.7878 900.41 27.9974 900.41 26.0605V25.5479ZM907.197 26.0605C907.197 27.1673 907.303 28.209 907.515 29.1855C907.726 30.1458 908.06 30.984 908.516 31.7002C908.971 32.4326 909.557 33.0104 910.273 33.4336C911.006 33.8568 911.885 34.0684 912.91 34.0684C913.903 34.0684 914.757 33.8568 915.474 33.4336C916.19 33.0104 916.776 32.4326 917.231 31.7002C917.671 30.984 917.996 30.1458 918.208 29.1855C918.42 28.209 918.525 27.1673 918.525 26.0605V25.5479C918.525 24.4736 918.42 23.4564 918.208 22.4961C917.996 21.5358 917.671 20.6895 917.231 19.957C916.776 19.2246 916.19 18.6468 915.474 18.2236C914.757 17.8005 913.887 17.5889 912.861 17.5889C911.852 17.5889 910.99 17.8005 910.273 18.2236C909.557 18.6468 908.971 19.2246 908.516 19.957C908.06 20.6895 907.726 21.5358 907.515 22.4961C907.303 23.4564 907.197 24.4736 907.197 25.5479V26.0605ZM931.367 39V12.584H937.52L937.935 16.2461C938.276 15.7578 938.651 15.3102 939.058 14.9033C939.465 14.4964 939.896 14.1302 940.352 13.8047C941.133 13.2513 941.987 12.8281 942.915 12.5352C943.843 12.2422 944.827 12.0957 945.869 12.0957C947.204 12.0957 948.424 12.291 949.531 12.6816C950.638 13.0723 951.598 13.6908 952.412 14.5371C953.21 15.3997 953.828 16.5065 954.268 17.8574C954.723 19.1921 954.951 20.8197 954.951 22.7402V39H948.164V22.8379C948.164 21.7962 948.042 20.9417 947.798 20.2744C947.57 19.5908 947.236 19.0537 946.797 18.6631C946.357 18.2725 945.828 18.0039 945.21 17.8574C944.591 17.6947 943.892 17.6133 943.11 17.6133C942.459 17.6133 941.857 17.6865 941.304 17.833C940.767 17.9795 940.286 18.1992 939.863 18.4922C939.521 18.7038 939.212 18.9561 938.936 19.249C938.659 19.542 938.407 19.8675 938.179 20.2256V39H931.367ZM974.214 39.4883C972.179 39.4883 970.332 39.1546 968.672 38.4873C967.012 37.82 965.588 36.9085 964.399 35.7529C963.211 34.6136 962.292 33.2708 961.641 31.7246C961.006 30.1621 960.688 28.4938 960.688 26.7197V25.7432C960.688 23.7249 961.006 21.8857 961.641 20.2256C962.275 18.5492 963.162 17.1087 964.302 15.9043C965.441 14.6999 966.792 13.764 968.354 13.0967C969.917 12.4294 971.618 12.0957 973.457 12.0957C975.361 12.0957 977.054 12.4131 978.535 13.0479C980.033 13.6663 981.302 14.5452 982.344 15.6846C983.369 16.8239 984.15 18.1992 984.688 19.8105C985.225 21.4056 985.493 23.1715 985.493 25.1084V27.9893H967.573V28.0625C967.801 29.1204 968.094 29.9749 968.452 30.626C968.81 31.2607 969.29 31.8385 969.893 32.3594C970.511 32.8965 971.219 33.3115 972.017 33.6045C972.814 33.8975 973.685 34.0439 974.629 34.0439C975.964 34.0439 977.257 33.7917 978.511 33.2871C979.764 32.7826 980.781 32.0257 981.562 31.0166L984.956 34.6787C984.093 35.8994 982.726 37.0062 980.854 37.999C978.983 38.9919 976.769 39.4883 974.214 39.4883ZM973.408 17.5889C972.643 17.5889 971.943 17.7272 971.309 18.0039C970.674 18.2643 970.12 18.6468 969.648 19.1514C969.16 19.6559 968.753 20.2581 968.428 20.958C968.102 21.6579 967.858 22.4391 967.695 23.3018H978.828V22.7646C978.828 22.0485 978.698 21.373 978.438 20.7383C978.177 20.1035 977.819 19.5501 977.363 19.0781C976.908 18.6224 976.346 18.2643 975.679 18.0039C975.028 17.7272 974.271 17.5889 973.408 17.5889Z" fill="#121312"/>
</svg>
