<svg width="60" height="60" viewBox="0 0 60 60" fill="none" xmlns="http://www.w3.org/2000/svg">
<g clip-path="url(#clip0_6_24)">
<mask id="mask0_6_24" style="mask-type:luminance" maskUnits="userSpaceOnUse" x="0" y="0" width="60" height="60">
<path d="M60 0H0V60H60V0Z" fill="white"/>
</mask>
<g mask="url(#mask0_6_24)">
<path d="M30 60C46.5686 60 60 46.5686 60 30C60 13.4314 46.5686 0 30 0C13.4314 0 0 13.4314 0 30C0 46.5686 13.4314 60 30 60Z" fill="#0088CC"/>
<path fill-rule="evenodd" clip-rule="evenodd" d="M21.6523 19.8266H38.4784C39.0737 19.8266 39.6686 19.914 40.2902 20.2039C41.0355 20.5511 41.4306 21.0986 41.7075 21.5036C41.7289 21.5351 41.7491 21.5675 41.7677 21.6007C42.0932 22.1801 42.261 22.8058 42.261 23.4787C42.261 24.1181 42.1089 24.8148 41.7677 25.422C41.7645 25.4278 41.7611 25.4336 41.7579 25.4392L31.1274 43.7002C30.8929 44.103 30.4614 44.3501 29.9955 44.3482C29.5296 44.3467 29.0998 44.0966 28.8682 43.6922L18.433 25.4703C18.43 25.4653 18.427 25.4604 18.424 25.4553C18.1852 25.062 17.8158 24.4533 17.7512 23.6679C17.6919 22.9457 17.8542 22.2221 18.2171 21.5945C18.58 20.967 19.1263 20.4654 19.7835 20.1583C20.4879 19.8292 21.2019 19.8266 21.6523 19.8266ZM28.6958 22.4353H21.6523C21.1896 22.4353 21.012 22.4638 20.8877 22.5217C20.7159 22.602 20.5717 22.7338 20.4754 22.9005C20.379 23.0673 20.3353 23.2607 20.3512 23.4542C20.3602 23.565 20.4054 23.6919 20.6722 24.1318C20.6777 24.141 20.6831 24.1503 20.6886 24.1597L28.6958 38.1418V22.4353ZM31.3044 22.4353V38.2108L39.4972 24.1374C39.5897 23.9694 39.6523 23.7268 39.6523 23.4787C39.6523 23.2775 39.6107 23.103 39.5175 22.923C39.4196 22.7824 39.36 22.7077 39.3101 22.6567C39.2674 22.6132 39.2346 22.5898 39.1881 22.5682C38.9944 22.4778 38.7962 22.4353 38.4784 22.4353H31.3044Z" fill="white"/>
</g>
</g>
<defs>
<clipPath id="clip0_6_24">
<rect width="60" height="60" fill="white"/>
</clipPath>
</defs>
</svg>
